<svg xmlns="http://www.w3.org/2000/svg" width="102.098" height="102" viewBox="0 0 102.098 102">
  <path id="Объединение_13" data-name="Объединение 13" d="M58.841,100c-9.948,0-21.432-4.85-32.339-13.659C16.19,78.015,7.763,67.171,3.379,56.591-2.211,43.1-.832,31.211,7.263,23.117l4.594-4.594a8.772,8.772,0,0,1,12.4-.006l.591.59A40.624,40.624,0,1,1,80.813,75.082l.659.659a8.782,8.782,0,0,1,0,12.405l-4.59,4.59A24.6,24.6,0,0,1,58.846,100ZM16,22.663,11.4,27.258c-8.087,8.087-5.885,19.2-2.614,27.091C12.81,64.054,20.607,74.055,30.18,81.786c9.726,7.854,20.172,12.358,28.66,12.358h0a18.936,18.936,0,0,0,13.9-5.547l4.59-4.59a2.92,2.92,0,0,0,0-4.124L68.152,70.7a2.916,2.916,0,0,0-4.124,0l-1.683,1.683a13.014,13.014,0,0,1-9.417,3.8h0c-5,0-10.725-2.406-16.121-6.775a38.783,38.783,0,0,1-11.3-14.571c-2.847-6.874-2.1-12.976,2.11-17.184l1.7-1.7a2.916,2.916,0,0,0,0-4.126l-9.19-9.171a2.916,2.916,0,0,0-4.122,0Zm56.295,43.9,4.251,4.252a34.522,34.522,0,0,0,17.4-27.265H86.228V37.692h7.717A34.82,34.82,0,0,0,62.233,5.98V13.7H56.377V5.981A34.524,34.524,0,0,0,29.119,23.369l4.327,4.318A8.772,8.772,0,0,1,33.452,40.1l-1.7,1.7c-3.106,3.106-2.172,7.589-.84,10.8,3.775,9.114,14.472,17.731,22.012,17.731h0A7.09,7.09,0,0,0,58.2,68.244l1.683-1.683a8.771,8.771,0,0,1,12.405,0Zm-28.1-14.975V49.174l7.742-9.917c1.193-1.518,1.4-2.226,1.4-3.153a2.474,2.474,0,0,0-.516-1.644,1.877,1.877,0,0,0-1.612-.6c-1.271,0-2.121.936-2.274,2.5l-.1,1.064-4.262-.812.049-.855a6.31,6.31,0,0,1,2.025-4.35,6.528,6.528,0,0,1,4.565-1.763,6.361,6.361,0,0,1,5.023,2.054,6.446,6.446,0,0,1,1.484,4.4,7.93,7.93,0,0,1-1.777,4.878l-4.943,6.395h7.088v4.21Zm23.394,0v-4.2H59.006V45.157L67.77,29.879h4.194V43.171H74.42v4.21H71.964v4.2Zm-2.72-8.415h2.72V38.318Z" transform="translate(1.173 1)" fill="#049" stroke="#f6fbff" stroke-width="2"/>
</svg>
