<svg xmlns="http://www.w3.org/2000/svg" width="100" height="100" viewBox="0 0 100 100">
  <path id="Объединение_11" data-name="Объединение 11" d="M-13909.282,100a1.465,1.465,0,0,1-1.465-1.464,1.465,1.465,0,0,1,1.465-1.465h6.5l2.949-9.632h-29.739A10.448,10.448,0,0,1-13940,76.993V66.622a1.465,1.465,0,0,1,1.466-1.465,1.465,1.465,0,0,1,1.465,1.465v10.37a7.514,7.514,0,0,0,7.5,7.516h79.147a7.515,7.515,0,0,0,7.5-7.516V21.047a7.515,7.515,0,0,0-7.5-7.516h-8.336a1.465,1.465,0,0,1-1.465-1.464,1.465,1.465,0,0,1,1.465-1.465h8.336A10.447,10.447,0,0,1-13840,21.047V76.993a10.448,10.448,0,0,1-10.427,10.446h-29.737l2.949,9.632h6.5a1.465,1.465,0,0,1,1.465,1.465,1.465,1.465,0,0,1-1.465,1.464Zm9.561-2.929h19.44l-2.949-9.632h-13.542Zm-16.05-15.434a1.465,1.465,0,0,1-1.465-1.465,1.465,1.465,0,0,1,1.465-1.465h5.984a1.465,1.465,0,0,1,1.465,1.465,1.465,1.465,0,0,1-1.465,1.465Zm-11.719,0a1.465,1.465,0,0,1-1.465-1.465,1.465,1.465,0,0,1,1.465-1.465h5.984a1.465,1.465,0,0,1,1.464,1.465,1.465,1.465,0,0,1-1.464,1.465Zm-2.035-5.814a4.64,4.64,0,0,1-4.631-4.639V20.8a4.639,4.639,0,0,1,4.631-4.638h2.759a1.465,1.465,0,0,1,1.465,1.465,1.465,1.465,0,0,1-1.465,1.465h-2.759a1.707,1.707,0,0,0-1.7,1.708v50.38a1.708,1.708,0,0,0,1.7,1.709h79.048a1.708,1.708,0,0,0,1.7-1.709V56.423a1.463,1.463,0,0,1,1.464-1.464,1.465,1.465,0,0,1,1.465,1.464v14.76a4.641,4.641,0,0,1-4.632,4.639Zm4.56-7.719a1.464,1.464,0,0,1-1.465-1.464,1.464,1.464,0,0,1,1.465-1.465h10.177a1.464,1.464,0,0,1,1.465,1.465,1.464,1.464,0,0,1-1.465,1.464Zm1.441-34.524a33.259,33.259,0,0,1,2.626-13.03,4.865,4.865,0,0,1-1.46-3.476,4.888,4.888,0,0,1,4.884-4.881,4.874,4.874,0,0,1,1.466.224,33.9,33.9,0,0,1,10.87-8.781A33.277,33.277,0,0,1-13889.917,0a33.632,33.632,0,0,1,33.607,33.579,33.511,33.511,0,0,1-1.777,10.8,1.466,1.466,0,0,1-1.386.994,1.46,1.46,0,0,1-.473-.078,1.465,1.465,0,0,1-.915-1.859,30.521,30.521,0,0,0,1.586-8.394h-9.6a46.08,46.08,0,0,1-5.122,20.6q1.935.65,3.745,1.463a30.849,30.849,0,0,0,6.771-7.961,1.466,1.466,0,0,1,2.007-.516,1.466,1.466,0,0,1,.515,2.007,33.782,33.782,0,0,1-12.045,11.969,33.618,33.618,0,0,1-16.91,4.554A33.631,33.631,0,0,1-13923.524,33.579Zm35.072,30.548c3.62-.5,7.051-2.835,9.9-6.743a48.511,48.511,0,0,0-9.9-1.271Zm-12.829-6.743c2.85,3.908,6.279,6.245,9.9,6.743V56.112A48.5,48.5,0,0,0-13901.281,57.383Zm22.511,4.756a30.377,30.377,0,0,0,4.288-2.068q.769-.447,1.508-.938-1.26-.5-2.582-.92A25.87,25.87,0,0,1-13878.771,62.139Zm-28.075-3.011a30.67,30.67,0,0,0,5.774,3,25.825,25.825,0,0,1-3.206-3.918Q-13905.591,58.63-13906.846,59.128Zm-2.721-2.03q1.8-.809,3.731-1.457a46.08,46.08,0,0,1-5.122-20.6h-9.6A30.594,30.594,0,0,0-13909.566,57.1Zm21.114-18.038a4.89,4.89,0,0,1,3.42,4.657,4.89,4.89,0,0,1-3.42,4.657v4.808a51.111,51.111,0,0,1,11.577,1.6,42.634,42.634,0,0,0,5.066-19.74h-16.644Zm-14.507,15.723a51.065,51.065,0,0,1,11.577-1.6V48.374a4.891,4.891,0,0,1-3.42-4.657,4.891,4.891,0,0,1,3.42-4.657V35.044h-16.644A42.623,42.623,0,0,0-13902.959,54.783Zm11.087-11.066a1.956,1.956,0,0,0,1.955,1.951,1.955,1.955,0,0,0,1.954-1.951,1.955,1.955,0,0,0-1.954-1.952A1.956,1.956,0,0,0-13891.872,43.717Zm-17.107-17.749a1.465,1.465,0,0,1,1.282,1.627c-.176,1.483-.286,3-.329,4.519h16.645V13.975a51.061,51.061,0,0,1-11.59-1.6,37.04,37.04,0,0,0-3.52,8.836,1.466,1.466,0,0,1-1.415,1.091,1.448,1.448,0,0,1-.375-.049,1.464,1.464,0,0,1-1.042-1.79,40.158,40.158,0,0,1,3.488-8.942q-1.934-.649-3.742-1.462a30.923,30.923,0,0,0-4.025,4.044,4.856,4.856,0,0,1,1.013,2.973,4.888,4.888,0,0,1-4.885,4.881,4.851,4.851,0,0,1-.809-.068,30.27,30.27,0,0,0-2.277,10.228h9.6c.044-1.636.161-3.267.351-4.862a1.468,1.468,0,0,1,1.456-1.292A1.487,1.487,0,0,1-13908.979,25.969Zm34.98-14.452a38.79,38.79,0,0,1,2.863,6.793,4.888,4.888,0,0,1,4.7,4.878,4.887,4.887,0,0,1-2.754,4.392c.166,1.492.271,3.009.313,4.533h9.6a30.594,30.594,0,0,0-10.993-22.054Q-13872.068,10.869-13874,11.517Zm-14.453,2.459V32.114h16.644c-.039-1.38-.134-2.753-.281-4.105a4.89,4.89,0,0,1-4.114-4.821,4.882,4.882,0,0,1,2.241-4.1,35.2,35.2,0,0,0-2.915-6.71A51.054,51.054,0,0,1-13888.452,13.975Zm15.177,9.213a1.956,1.956,0,0,0,1.955,1.951,1.955,1.955,0,0,0,1.955-1.951,1.955,1.955,0,0,0-1.955-1.952A1.957,1.957,0,0,0-13873.275,23.188Zm-46.153-6.116a1.955,1.955,0,0,0,1.954,1.951,1.956,1.956,0,0,0,1.956-1.951,1.956,1.956,0,0,0-1.956-1.952A1.956,1.956,0,0,0-13919.429,17.072Zm30.977-6.027a48.557,48.557,0,0,0,9.893-1.269c-2.807-3.824-6.252-6.23-9.893-6.743Zm-12.844-1.274a48.549,48.549,0,0,0,9.914,1.274V3.031C-13895.053,3.539-13898.5,5.939-13901.3,9.771Zm-2.516-3.525a30.343,30.343,0,0,0-3.045,1.779q1.258.5,2.582.92a25.692,25.692,0,0,1,3.262-3.953Q-13902.435,5.546-13903.812,6.246Zm25.585-.659a26.364,26.364,0,0,1,2.67,3.358q1.314-.418,2.568-.915a30.689,30.689,0,0,0-5.791-3.01C-13878.594,5.2-13878.41,5.393-13878.227,5.587ZM-13940,59.809V21.047a10.448,10.448,0,0,1,10.427-10.446h4.254a1.465,1.465,0,0,1,1.465,1.465,1.465,1.465,0,0,1-1.465,1.465h-4.254a7.514,7.514,0,0,0-7.5,7.516V59.809a1.465,1.465,0,0,1-1.465,1.465A1.465,1.465,0,0,1-13940,59.809Zm15.036,1.458a1.464,1.464,0,0,1-1.465-1.465,1.464,1.464,0,0,1,1.465-1.464h6.277a1.465,1.465,0,0,1,1.465,1.464,1.465,1.465,0,0,1-1.465,1.465Zm76.191-11.74V20.8a1.708,1.708,0,0,0-1.7-1.708h-5.213a1.465,1.465,0,0,1-1.465-1.465,1.465,1.465,0,0,1,1.465-1.465h5.213a4.64,4.64,0,0,1,4.632,4.638V49.528a1.465,1.465,0,0,1-1.465,1.464A1.463,1.463,0,0,1-13848.774,49.528Z" transform="translate(13940.002)" fill="#049"/>
</svg>
