<svg xmlns="http://www.w3.org/2000/svg" width="87.678" height="100" viewBox="0 0 87.678 100">
  <path id="Объединение_12" data-name="Объединение 12" d="M-13940,100l3.557-21.332a17.7,17.7,0,0,1,11.889-13.915l13.879-4.626V58.064h3.225V61.09l2.408,9.631,6.514-7.817h4.736l6.514,7.817,2.41-9.631V58.064h3.225v2.063l13.877,4.626a17.7,17.7,0,0,1,11.891,13.915l3.555,21.332Zm16.467-32.185a14.486,14.486,0,0,0-9.729,11.386l-2.93,17.576h11.152l1.467-14.677,3.211.321-1.436,14.354h17.787l2.941-20.585-1.926-2.887-3.637,4.365-3.574-14.3Zm56.252,28.959h11.152l-2.93-17.576a14.488,14.488,0,0,0-9.729-11.386l-13.328-4.444-3.574,14.3-3.637-4.365-1.924,2.887,2.939,20.585h17.787l-1.436-14.355,3.209-.321Zm-33.561-26.058,3.139,4.708-3.049,21.35h9.184l-3.051-21.35,3.139-4.708-3.822-4.587h-1.715Zm.9-11.039a8.01,8.01,0,0,1-5.7-2.361l-6.291-6.29a17.641,17.641,0,0,1-4.484-7.568,8.049,8.049,0,0,1-7.164-7.974,8.034,8.034,0,0,1,3.277-6.452h-.051V24.194A24.221,24.221,0,0,1-13896.16,0h1.16a17.262,17.262,0,0,1,16.172,11.381,8.078,8.078,0,0,1,6.861,7.974v9.678h-.049a8.038,8.038,0,0,1,3.275,6.452,8.049,8.049,0,0,1-7.164,7.974,17.63,17.63,0,0,1-4.484,7.568l-6.289,6.29a8.013,8.013,0,0,1-5.7,2.361Zm-13.965-21.2a14.42,14.42,0,0,0,4.252,10.265l6.289,6.29a4.879,4.879,0,0,0,3.422,1.416h7.561a4.871,4.871,0,0,0,3.42-1.416l6.291-6.29a14.421,14.421,0,0,0,4.252-10.266V30.537a13.078,13.078,0,0,1-9.543-6.208l-.492-.823a28.938,28.938,0,0,1-19.113,7.139h-6.338Zm-6.449-3a4.833,4.833,0,0,0,3.3,4.566c-.045-.519-.076-1.042-.076-1.569V30.942A4.833,4.833,0,0,0-13920.354,35.484Zm45.162,3c0,.528-.031,1.05-.076,1.568a4.83,4.83,0,0,0,3.3-4.564,4.833,4.833,0,0,0-3.225-4.542Zm-10-15.811a9.83,9.83,0,0,0,8.387,4.75,8.072,8.072,0,0,1,1.615.163V19.354a4.845,4.845,0,0,0-4.84-4.839h-1.217l-.334-1.169A14.014,14.014,0,0,0-13895,3.226h-1.16a20.993,20.993,0,0,0-20.969,20.968v3.388a8.067,8.067,0,0,1,1.613-.163h7.951a25.745,25.745,0,0,0,18.326-7.592l1.461-1.461Z" transform="translate(13940)" fill="#049"/>
</svg>
