<svg xmlns="http://www.w3.org/2000/svg" width="78.173" height="102" viewBox="0 0 78.173 102">
  <path id="Объединение_16" data-name="Объединение 16" d="M-13940,73.633A48.046,48.046,0,0,1-13929.045,44a41.486,41.486,0,0,1,11.83-10.151,8.837,8.837,0,0,1-1.644-2.945,8.81,8.81,0,0,1,5.993-11.221l-7.48-13.038a2.932,2.932,0,0,1,1.727-4.271,59.7,59.7,0,0,1,16.7-2.37,59.7,59.7,0,0,1,16.705,2.37,2.931,2.931,0,0,1,1.726,4.271l-7.478,13.038a8.812,8.812,0,0,1,5.994,11.221,8.866,8.866,0,0,1-1.646,2.945A41.609,41.609,0,0,1-13874.781,44a48.06,48.06,0,0,1,10.953,29.638c0,21.3-16.988,26.367-38.087,26.367S-13940,94.939-13940,73.633Zm15.5-25.941c-6.037,7.425-9.641,17.122-9.641,25.941,0,14.565,9.337,20.545,32.226,20.545s32.227-5.979,32.227-20.545c0-8.819-3.6-18.515-9.642-25.941-5.667-6.974-13.559-12.145-22.585-12.145C-13910.113,35.547-13918.136,39.859-13924.5,47.692Zm31.5-16.626a2.917,2.917,0,0,0,2.467-2,2.936,2.936,0,0,0-1.872-3.7,30.674,30.674,0,0,0-3.557-.939l-.018,0a30.291,30.291,0,0,0-15.445.942,2.939,2.939,0,0,0-1.865,3.7,2.914,2.914,0,0,0,2.483,1.988,29.749,29.749,0,0,1,8.895-1.373A29.685,29.685,0,0,1-13893,31.066Zm-3.938-12.743,6.452-11.25a54.272,54.272,0,0,0-11.426-1.213,54.285,54.285,0,0,0-11.426,1.213l6.452,11.25a36.009,36.009,0,0,1,4.974-.345A36,36,0,0,1-13896.941,18.323Zm-14.682,61.931V77.082h-4.877V71.249h4.877V49.433h12.682c8.1,0,13.079,3.522,13.079,10.347,0,6.781-4.977,10.3-13.079,10.3h-6.959v1.166h10.236v5.834h-10.236v3.172Zm5.723-14.793h6.915c4.712,0,7.353-2.07,7.353-5.638,0-3.609-2.641-5.548-7.353-5.548h-6.915Z" transform="translate(13941.001 1)" fill="#049" stroke="#f6fbff" stroke-width="2"/>
</svg>
