<svg xmlns="http://www.w3.org/2000/svg" width="80.313" height="100" viewBox="0 0 80.313 100">
  <path id="Объединение_14" data-name="Объединение 14" d="M-13935.973,100a4.032,4.032,0,0,1-4.027-4.027V8.595a4.032,4.032,0,0,1,4.027-4.027h47.356a7.6,7.6,0,0,0,1.526-.743,7.594,7.594,0,0,0,1.172-1.224,6.752,6.752,0,0,1,2.983-2.4,6.687,6.687,0,0,1,3.73.181,7.976,7.976,0,0,0,1.758.307,7.974,7.974,0,0,0,1.759-.307,6.687,6.687,0,0,1,3.73-.181,6.739,6.739,0,0,1,2.982,2.4,7.581,7.581,0,0,0,1.173,1.224,7.681,7.681,0,0,0,1.549.752,6.755,6.755,0,0,1,3.175,2.081,6.733,6.733,0,0,1,1,3.641,7.768,7.768,0,0,0,.243,1.728,7.4,7.4,0,0,0,.786,1.46,6.794,6.794,0,0,1,1.366,3.611,6.792,6.792,0,0,1-1.366,3.61,7.4,7.4,0,0,0-.786,1.46,7.773,7.773,0,0,0-.243,1.727,6.734,6.734,0,0,1-1,3.642,6.755,6.755,0,0,1-3.175,2.081c-.334.135-.657.266-.946.406V46.742a2.746,2.746,0,0,1-1.192,2.265,2.747,2.747,0,0,1-1.556.483c-.085,0-.17,0-.254-.012v46.5a4.032,4.032,0,0,1-4.027,4.027Zm-1.1-91.406V95.973a1.1,1.1,0,0,0,1.1,1.1h61.744a1.1,1.1,0,0,0,1.1-1.1V48.46l-4.315-1.662-.3.116V83.931a2.129,2.129,0,0,1-.659,1.537,2.137,2.137,0,0,1-1.58.584c-.078,0-.158-.006-.239-.006a4.585,4.585,0,0,0-4.581,4.579,2.1,2.1,0,0,1-.621,1.5,2.11,2.11,0,0,1-1.5.622h-36.344a2.109,2.109,0,0,1-1.5-.622,2.114,2.114,0,0,1-.621-1.5,4.585,4.585,0,0,0-4.581-4.578q-.122,0-.24.006a2.149,2.149,0,0,1-1.579-.584,2.127,2.127,0,0,1-.659-1.536v-9.5a1.465,1.465,0,0,1,1.465-1.465,1.465,1.465,0,0,1,1.465,1.465v8.7a7.523,7.523,0,0,1,7.017,6.69h34.817a7.522,7.522,0,0,1,7.017-6.69V48.043l-3.281,1.264a2.747,2.747,0,0,1-2.542-.3,2.747,2.747,0,0,1-1.193-2.266v-10.7h-34.061a2.25,2.25,0,0,1-2.246-2.247V25.483a2.25,2.25,0,0,1,2.246-2.248h28.891a5.23,5.23,0,0,0-.189-1.066,7.466,7.466,0,0,0-.787-1.46,6.792,6.792,0,0,1-1.366-3.61,5.134,5.134,0,0,1,.627-2.348h-27.932a7.522,7.522,0,0,1-7.017,6.69V67.6a1.464,1.464,0,0,1-1.465,1.465,1.465,1.465,0,0,1-1.465-1.465V20.638a2.129,2.129,0,0,1,.659-1.537,2.145,2.145,0,0,1,1.581-.584c.077,0,.157.006.238.006a4.585,4.585,0,0,0,4.581-4.579,2.112,2.112,0,0,1,.621-1.5,2.11,2.11,0,0,1,1.5-.623H-13893a9.691,9.691,0,0,0,.186-1.52,8.686,8.686,0,0,1,.524-2.8h-43.687A1.1,1.1,0,0,0-13937.07,8.595Zm60.612,35.444,6.33,2.438V32.864a4.879,4.879,0,0,1-1.829,1.129,6.693,6.693,0,0,1-3.73-.181,7.979,7.979,0,0,0-1.759-.308,7.941,7.941,0,0,0-1.758.308,9.985,9.985,0,0,1-2.386.384,4.316,4.316,0,0,1-1.345-.2,4.875,4.875,0,0,1-1.828-1.129V46.477l6.329-2.438a2.74,2.74,0,0,1,.987-.184A2.741,2.741,0,0,1-13876.458,44.039Zm-44.612-10.93h33.378V30.024c-.289-.139-.612-.271-.946-.406a6.755,6.755,0,0,1-3.175-2.081,4.46,4.46,0,0,1-.662-1.373h-28.595Zm46.085-2.142a4.6,4.6,0,0,0,2.123.238,4.621,4.621,0,0,0,1.641-1.489,9.754,9.754,0,0,1,1.7-1.714,9.881,9.881,0,0,1,2.175-1.1,4.615,4.615,0,0,0,1.9-1.088,4.611,4.611,0,0,0,.442-2.128,10.073,10.073,0,0,1,.38-2.422,9.577,9.577,0,0,1,1.092-2.114,4.612,4.612,0,0,0,.917-2.053,4.61,4.61,0,0,0-.917-2.052,9.55,9.55,0,0,1-1.092-2.114,10.079,10.079,0,0,1-.38-2.422,4.615,4.615,0,0,0-.442-2.128,4.638,4.638,0,0,0-1.9-1.088,9.881,9.881,0,0,1-2.175-1.1,9.734,9.734,0,0,1-1.7-1.715,4.612,4.612,0,0,0-1.641-1.488,4.6,4.6,0,0,0-2.123.238,10.324,10.324,0,0,1-2.461.394,10.324,10.324,0,0,1-2.461-.394,7.8,7.8,0,0,0-1.678-.3,1.446,1.446,0,0,0-.445.061,4.6,4.6,0,0,0-1.64,1.489,9.793,9.793,0,0,1-1.7,1.714,9.881,9.881,0,0,1-2.175,1.1,4.622,4.622,0,0,0-1.9,1.088,4.623,4.623,0,0,0-.443,2.128,10.023,10.023,0,0,1-.379,2.422,9.547,9.547,0,0,1-1.091,2.114,4.6,4.6,0,0,0-.918,2.053,4.616,4.616,0,0,0,.916,2.051,9.476,9.476,0,0,1,1.093,2.115,10.023,10.023,0,0,1,.379,2.422,4.635,4.635,0,0,0,.443,2.128,4.626,4.626,0,0,0,1.9,1.088,9.837,9.837,0,0,1,2.176,1.1,9.747,9.747,0,0,1,1.7,1.714,4.609,4.609,0,0,0,1.639,1.489,4.606,4.606,0,0,0,2.124-.238,10.324,10.324,0,0,1,2.461-.394A10.324,10.324,0,0,1-13874.985,30.967Zm-40.3,50.137a7.885,7.885,0,0,1-4.749-3.813,4.6,4.6,0,0,1-.173-3.865,4.772,4.772,0,0,1,2.772-2.62,13.292,13.292,0,0,1,5.365-.52c.5.025,1.637.049,2.975.064.278-1.359.5-2.729.674-4.1a1.466,1.466,0,0,1,1.636-1.272,1.465,1.465,0,0,1,1.272,1.634q-.234,1.883-.6,3.753c1.987,0,3.8-.04,4.272-.13a1.463,1.463,0,0,1,1.4.322,1.467,1.467,0,0,1,.437,1.431c-.326,1.324-.124,1.779-.058,1.821a.721.721,0,0,0,.535-.179,4.032,4.032,0,0,0,.922-1.425,1.467,1.467,0,0,1,1.833-.763,1.465,1.465,0,0,1,.91,1.764.7.7,0,0,0,.118.527,1.576,1.576,0,0,0,.957.687,4.2,4.2,0,0,0,2.909-.8,1.466,1.466,0,0,1,2.013.492,1.466,1.466,0,0,1-.493,2.012,6.933,6.933,0,0,1-5.032,1.164,4.485,4.485,0,0,1-2.339-1.344,3.41,3.41,0,0,1-3.877.355,3.378,3.378,0,0,1-1.5-3.054c-1.063.042-2.371.054-3.663.052q-.338,1.353-.742,2.684a8.636,8.636,0,0,1-1.928,3.707,5.857,5.857,0,0,1-4.155,1.648A6.371,6.371,0,0,1-13915.287,81.1Zm-1.133-7.55a1.839,1.839,0,0,0-1.08.987,1.7,1.7,0,0,0,.094,1.461,4.989,4.989,0,0,0,2.9,2.278,3.132,3.132,0,0,0,2.992-.657,6.1,6.1,0,0,0,1.2-2.5q.281-.924.529-1.862c-1.4-.023-2.405-.052-2.435-.053-.5-.024-.988-.044-1.467-.044A7.945,7.945,0,0,0-13916.42,73.554Zm-6.115-14.445a1.465,1.465,0,0,1-1.465-1.465,1.465,1.465,0,0,1,1.465-1.465h17.434a1.465,1.465,0,0,1,1.465,1.465,1.465,1.465,0,0,1-1.465,1.465Zm0-7.278a1.465,1.465,0,0,1-1.465-1.465,1.465,1.465,0,0,1,1.465-1.465h28.795a1.465,1.465,0,0,1,1.465,1.465,1.465,1.465,0,0,1-1.465,1.465Zm0-7.278a1.465,1.465,0,0,1-1.465-1.465,1.465,1.465,0,0,1,1.465-1.465h28.795a1.465,1.465,0,0,1,1.465,1.465,1.465,1.465,0,0,1-1.465,1.465Zm33.888-27.455a11.214,11.214,0,0,1,11.2-11.2,11.215,11.215,0,0,1,11.2,11.2,1.464,1.464,0,0,1-1.465,1.464,1.465,1.465,0,0,1-1.465-1.464,8.282,8.282,0,0,0-8.272-8.272,8.282,8.282,0,0,0-8.271,8.272,8.281,8.281,0,0,0,8.271,8.272,8.272,8.272,0,0,0,6.289-2.9,1.465,1.465,0,0,1,2.065-.161,1.466,1.466,0,0,1,.16,2.066,11.2,11.2,0,0,1-8.515,3.921A11.214,11.214,0,0,1-13888.647,17.1Z" transform="translate(13940 -0.001)" fill="#049"/>
</svg>
