<svg xmlns="http://www.w3.org/2000/svg" width="32" height="32" viewBox="0 0 32 32">
  <g id="Сгруппировать_40" data-name="Сгруппировать 40" transform="translate(-1148 -1498.141)">
    <circle id="Эллипс_6" data-name="Эллипс 6" cx="16" cy="16" r="16" transform="translate(1148 1498.141)" fill="#039be5"/>
    <path id="Контур_95" data-name="Контур 95" d="M5.682,13.157,20.882,7.3c.706-.255,1.322.172,1.093,1.239h0L19.388,20.727c-.192.864-.706,1.075-1.424.667l-3.941-2.9-1.9,1.831a.994.994,0,0,1-.8.388l.28-4.011,7.3-6.6c.318-.28-.071-.437-.49-.159l-9.024,5.68L5.5,14.409c-.845-.268-.863-.845.179-1.252Z" transform="translate(1149.532 1500.297)" fill="#fff"/>
  </g>
</svg>
