<svg xmlns="http://www.w3.org/2000/svg" width="87.781" height="100" viewBox="0 0 87.781 100">
  <path id="Объединение_10" data-name="Объединение 10" d="M-13937.321,58.79a40.989,40.989,0,0,1,7.985-24.35l-3.061-3.06a4.812,4.812,0,0,1-6.2-.519,4.82,4.82,0,0,1,0-6.812l6.709-6.709a4.823,4.823,0,0,1,6.813,0,4.822,4.822,0,0,1,.515,6.194l2.923,2.924a41.033,41.033,0,0,1,19.154-8.385V14.415h-1.748a5.093,5.093,0,0,1-5.088-5.088V5.089A5.093,5.093,0,0,1-13904.229,0H-13888a5.1,5.1,0,0,1,5.091,5.089V9.327a5.1,5.1,0,0,1-5.091,5.088h-1.748v3.659a41.012,41.012,0,0,1,19.153,8.385l2.927-2.924a4.816,4.816,0,0,1,.515-6.2,4.821,4.821,0,0,1,6.81,0l6.709,6.71a4.822,4.822,0,0,1,0,6.812,4.813,4.813,0,0,1-6.2.519l-3.06,3.06a40.99,40.99,0,0,1,7.985,24.351A41.256,41.256,0,0,1-13896.11,100,41.256,41.256,0,0,1-13937.321,58.79Zm2.93,0a38.322,38.322,0,0,0,38.281,38.279,38.322,38.322,0,0,0,38.278-38.279,38.323,38.323,0,0,0-38.278-38.28A38.323,38.323,0,0,0-13934.392,58.791Zm66.042-30.428a41.437,41.437,0,0,1,3.633,3.764l2.77-2.771-3.7-3.7Zm-61.928.993,2.771,2.771a41.836,41.836,0,0,1,3.633-3.764l-2.705-2.7Zm65.2-9.944a1.887,1.887,0,0,0,0,2.668l6.709,6.71a1.887,1.887,0,0,0,2.669,0,1.89,1.89,0,0,0,0-2.669l-6.709-6.709a1.886,1.886,0,0,0-1.335-.552A1.883,1.883,0,0,0-13865.078,19.412Zm-64.733,0-6.712,6.71a1.888,1.888,0,0,0,0,2.669,1.887,1.887,0,0,0,2.669,0l6.709-6.71a1.89,1.89,0,0,0,0-2.669,1.88,1.88,0,0,0-1.335-.552A1.871,1.871,0,0,0-13929.812,19.411Zm37.139-1.685V14.415h-6.878v3.311c1.133-.094,2.281-.145,3.44-.145S-13893.809,17.631-13892.673,17.726Zm-13.714-12.637V9.327a2.16,2.16,0,0,0,2.158,2.159H-13888a2.163,2.163,0,0,0,2.161-2.159V5.089A2.163,2.163,0,0,0-13888,2.93h-16.233A2.16,2.16,0,0,0-13906.387,5.089Zm-11.084,79.594a1.464,1.464,0,0,1-.2-2.062,1.462,1.462,0,0,1,2.061-.2,30.682,30.682,0,0,0,19.5,7,30.669,30.669,0,0,0,30.635-30.634,30.662,30.662,0,0,0-7.024-19.518,1.467,1.467,0,0,1,.2-2.063,1.466,1.466,0,0,1,2.063.195,33.618,33.618,0,0,1,7.7,21.386,33.6,33.6,0,0,1-33.564,33.564A33.618,33.618,0,0,1-13917.471,84.683Zm19.893-.551V82.658a1.467,1.467,0,0,1,1.468-1.465,1.463,1.463,0,0,1,1.462,1.465v1.473a1.463,1.463,0,0,1-1.462,1.465A1.466,1.466,0,0,1-13897.578,84.132Zm-24.9-4.567a33.2,33.2,0,0,1-7.2-20.774,33.6,33.6,0,0,1,33.564-33.565,33.215,33.215,0,0,1,20.817,7.235,1.465,1.465,0,0,1,.24,2.058,1.468,1.468,0,0,1-2.061.239,30.309,30.309,0,0,0-19-6.6,30.67,30.67,0,0,0-30.635,30.635,30.327,30.327,0,0,0,6.569,18.959,1.465,1.465,0,0,1-.241,2.057,1.463,1.463,0,0,1-.908.315A1.457,1.457,0,0,1-13922.475,79.565Zm43.063-1.743-1.042-1.042a1.464,1.464,0,0,1,0-2.071,1.468,1.468,0,0,1,2.074,0l1.038,1.042a1.463,1.463,0,0,1,0,2.072,1.455,1.455,0,0,1-1.035.429A1.46,1.46,0,0,1-13879.411,77.821Zm-35.472,0a1.463,1.463,0,0,1,0-2.072l1.041-1.042a1.463,1.463,0,0,1,2.07,0,1.463,1.463,0,0,1,0,2.071l-1.041,1.042a1.457,1.457,0,0,1-1.035.429A1.459,1.459,0,0,1-13914.883,77.821Zm13.606-19.03a5.174,5.174,0,0,1,3.7-4.953V35.35a2.355,2.355,0,0,1,2.438-2.352,25.71,25.71,0,0,1,17.279,7.542,25.707,25.707,0,0,1,7.542,17.279,2.355,2.355,0,0,1-2.351,2.436h-18.489a5.17,5.17,0,0,1-4.951,3.7A5.172,5.172,0,0,1-13901.276,58.791Zm2.93,0a2.239,2.239,0,0,0,2.236,2.236,2.239,2.239,0,0,0,2.236-2.236,2.239,2.239,0,0,0-2.236-2.237A2.239,2.239,0,0,0-13898.347,58.791Zm3.7-4.953a5.186,5.186,0,0,1,3.489,3.488h17.884a22.791,22.791,0,0,0-6.656-14.714,22.792,22.792,0,0,0-14.717-6.656Zm-26.547,6.677a1.464,1.464,0,0,1-1.465-1.465,1.464,1.464,0,0,1,1.465-1.465h1.475a1.465,1.465,0,0,1,1.465,1.465,1.466,1.466,0,0,1-1.465,1.465Zm7.354-17.123-1.041-1.042a1.462,1.462,0,0,1,0-2.071,1.463,1.463,0,0,1,2.07,0l1.041,1.042a1.463,1.463,0,0,1,0,2.072,1.454,1.454,0,0,1-1.035.429A1.462,1.462,0,0,1-13913.842,43.391Z" transform="translate(13940.003)" fill="#049"/>
</svg>
