<svg xmlns="http://www.w3.org/2000/svg" width="32.708" height="36" viewBox="0 0 32.708 36">
  <g id="Сгруппировать_38" data-name="Сгруппировать 38" transform="translate(-1212.916 -1515.9)">
    <rect id="Прямоугольник_77" data-name="Прямоугольник 77" width="22.879" height="21.964" transform="translate(1218.484 1519.652)" fill="#fff"/>
    <path id="Контур_93" data-name="Контур 93" d="M11.85,39.9a.4.4,0,0,1-.4-.4V32.316a.249.249,0,0,0-.2-.242c-2.6-.579-5.9-3.743-6.546-6.269a34.469,34.469,0,0,1,0-14.783C5.34,8.5,8.644,5.334,11.248,4.753a48,48,0,0,1,18.013,0c2.6.58,5.907,3.743,6.546,6.269a34.415,34.415,0,0,1,0,14.78c-.638,2.525-3.942,5.689-6.546,6.27a48.188,48.188,0,0,1-9,.852c-.436,0-.877-.006-1.313-.018h-.009a.244.244,0,0,0-.174.074l-3.208,3.3-3.413,3.5a.4.4,0,0,1-.294.125ZM13.337,9.3a1.3,1.3,0,0,0-.581.138,5.985,5.985,0,0,0-2.013,1.516,2.6,2.6,0,0,0-.763,2.562l.146.356c.359.877.73,1.784,1.154,2.647a25.434,25.434,0,0,0,3.747,5.734A26.13,26.13,0,0,0,24.82,28.8a6.394,6.394,0,0,0,.75.24c.1.027.2.054.3.084a.531.531,0,0,0,.095.04A5.785,5.785,0,0,0,27,28.838a5.593,5.593,0,0,0,2.389-2.632,1.33,1.33,0,0,0-.4-1.647,20.305,20.305,0,0,0-1.674-1.275c-.529-.377-1.146-.812-1.779-1.212a1.569,1.569,0,0,0-1.889.082,3.328,3.328,0,0,0-.533.6,1.717,1.717,0,0,1-1.131.859h-.065a2.677,2.677,0,0,1-1.279-.327,9.334,9.334,0,0,1-5.247-5.81,1.181,1.181,0,0,1,.079-1.032,1.763,1.763,0,0,1,.407-.429L15.9,16a6.5,6.5,0,0,1,.517-.407,1.665,1.665,0,0,0,.467-2.262,20.846,20.846,0,0,0-2.506-3.509A1.3,1.3,0,0,0,13.337,9.3Zm6.71-1.127h-.092a.589.589,0,0,0-.582.665c.072.405.483.447.814.481l.061.006c.182.02.368.037.547.053.36.032.731.066,1.092.13a8.647,8.647,0,0,1,6.96,7.224c.08.553.119,1.122.156,1.672.009.132.018.261.027.39.031.418.247.667.579.667h.008a.579.579,0,0,0,.549-.683l-.022-.287v-.025a21.57,21.57,0,0,0-.237-2.159A9.785,9.785,0,0,0,20.8,8.2c.56.015,1.509.041,1.57.041-.006,0-.218-.009-2.133-.065h-.189Zm.738,2.583a.555.555,0,0,0-.022,1.109l.3.038c.176.022.356.044.53.073a6.6,6.6,0,0,1,1.831.561,5.452,5.452,0,0,1,2.294,2.153,5.858,5.858,0,0,1,.741,2.939,1.468,1.468,0,0,0,.058.468.549.549,0,0,0,.508.339h.029a.552.552,0,0,0,.5-.4,2.2,2.2,0,0,0,.047-.335v-.014a.367.367,0,0,0,0-.084c0-.069-.008-.135-.011-.2V17.4c-.011-.2-.02-.362-.034-.53a1.97,1.97,0,0,0-.03-.2c-.007-.036-.013-.07-.018-.1a6.389,6.389,0,0,0-3.487-4.981,7.668,7.668,0,0,0-3.169-.824.526.526,0,0,0-.062-.007Zm3.669,6.826h.077a.561.561,0,0,0,.064,0,.173.173,0,0,0,.037,0,.48.48,0,0,0,.4-.391,1.52,1.52,0,0,0,.006-.469,3.348,3.348,0,0,0-1.007-2.373,3.3,3.3,0,0,0-2.317-.941h-.127a.581.581,0,0,0-.569.469.55.55,0,0,0,.449.641,2.863,2.863,0,0,0,.422.06,2.544,2.544,0,0,1,.48.075,2.092,2.092,0,0,1,.653.316,2.172,2.172,0,0,1,.8,1.259,6.115,6.115,0,0,1,.114.772.6.6,0,0,0,.532.587h-.011Z" transform="translate(1209.014 1512)" fill="#7d3daf"/>
  </g>
</svg>
