<svg xmlns="http://www.w3.org/2000/svg" width="32.002" height="32" viewBox="0 0 32.002 32">
  <g id="Сгруппировать_39" data-name="Сгруппировать 39" transform="translate(-1109.081 -1481.999)">
    <rect id="Прямоугольник_78" data-name="Прямоугольник 78" width="23" height="20" transform="translate(1114 1488)" fill="#fff"/>
    <path id="Контур_94" data-name="Контур 94" d="M19.853,35.8h0a15.982,15.982,0,0,1-8.311-2.334l-.59-.361L5.231,34.579l1.557-5.528-.4-.619A16,16,0,1,1,19.853,35.8ZM12.637,11.409a1.763,1.763,0,0,0-1.053.347,5.35,5.35,0,0,0-2,2.661c-.482,1.868.284,4.117,2.158,6.334a21.791,21.791,0,0,0,11.7,7.384,6.444,6.444,0,0,0,4.828-.515,3.8,3.8,0,0,0,1.879-2.38l.214-.867a.586.586,0,0,0-.387-.672L25.45,21.892a.758.758,0,0,0-.288-.056.767.767,0,0,0-.551.235l-1.774,2a.559.559,0,0,1-.4.173.553.553,0,0,1-.167-.026,13.719,13.719,0,0,1-7.52-5.586.4.4,0,0,1,.064-.5l1.7-1.7a.536.536,0,0,0,.114-.63L14.68,11.845a.7.7,0,0,0-.6-.366l-1.338-.063Z" transform="translate(1105.221 1478.199)" fill="#1bd741"/>
  </g>
</svg>
