<?xml version="1.0" encoding="UTF-8"?>
<!DOCTYPE svg PUBLIC "-//W3C//DTD SVG 1.1//EN" "http://www.w3.org/Graphics/SVG/1.1/DTD/svg11.dtd">
<!-- Creator: CorelDRAW 2019 (64-Bit) -->
<svg xmlns="http://www.w3.org/2000/svg" xml:space="preserve" width="101px" height="56px" version="1.1" style="shape-rendering:geometricPrecision; text-rendering:geometricPrecision; image-rendering:optimizeQuality; fill-rule:evenodd; clip-rule:evenodd"
viewBox="0 0 101 56.11"
 xmlns:xlink="http://www.w3.org/1999/xlink"
 xmlns:xodm="http://www.corel.com/coreldraw/odm/2003">
 <defs>
  <style type="text/css">
   <![CDATA[
    .fil1 {fill:#004499}
    .fil0 {fill:#004499;fill-rule:nonzero}
    .fil2 {fill:#004499;fill-rule:nonzero}
   ]]>
  </style>
 </defs>
 <g id="Слой_x0020_1">
  <metadata id="CorelCorpID_0Corel-Layer"/>
  <g id="_2027873271824">
   <g>
    <path class="fil0" d="M28.19 23.45c1.29,0 2.46,0.52 3.31,1.37l0 0 -1.65 1.65 0 0c-0.42,-0.42 -1.01,-0.68 -1.66,-0.68 -0.64,0 -1.23,0.26 -1.65,0.68 -0.42,0.42 -0.68,1.01 -0.68,1.65 0,0.65 0.26,1.24 0.68,1.66 0.42,0.42 1.01,0.68 1.65,0.68 0.65,0 1.24,-0.26 1.66,-0.68l0 0 1.65 1.65 0 0c-0.85,0.85 -2.02,1.37 -3.31,1.37 -1.28,0 -2.45,-0.52 -3.3,-1.37l0 0c-0.85,-0.85 -1.37,-2.02 -1.37,-3.31 0,-1.28 0.52,-2.45 1.37,-3.3l0 0c0.85,-0.85 2.02,-1.37 3.3,-1.37z"/>
    <path class="fil0" d="M28.19 18.77c2.59,0 4.92,1.05 6.62,2.74 1.69,1.69 2.74,4.03 2.74,6.61 0,2.59 -1.05,4.92 -2.74,6.62 -1.7,1.69 -4.03,2.74 -6.62,2.74 -2.58,0 -4.92,-1.05 -6.61,-2.74l0 0 1.65 -1.66 0 0c1.27,1.27 3.03,2.06 4.96,2.06 1.94,0 3.69,-0.79 4.96,-2.06 1.27,-1.26 2.06,-3.02 2.06,-4.96 0,-1.93 -0.79,-3.69 -2.06,-4.96 -1.27,-1.26 -3.02,-2.05 -4.96,-2.05 -1.93,0 -3.69,0.79 -4.96,2.05l-1.65 -1.65c1.69,-1.69 4.03,-2.74 6.61,-2.74z"/>
    <path class="fil0" d="M28.19 14.1c3.88,0 7.38,1.57 9.92,4.11l-1.65 1.65c-2.12,-2.12 -5.04,-3.43 -8.27,-3.43 -3.22,0 -6.15,1.31 -8.26,3.43 -2.12,2.11 -3.43,5.04 -3.43,8.26 0,3.23 1.31,6.16 3.43,8.27 2.11,2.12 5.04,3.42 8.26,3.42 3.23,0 6.15,-1.3 8.27,-3.42l1.65 1.65c-2.54,2.54 -6.04,4.11 -9.92,4.11 -3.87,0 -7.38,-1.57 -9.92,-4.11 -2.53,-2.54 -4.1,-6.04 -4.1,-9.92 0,-3.87 1.57,-7.38 4.1,-9.91 2.54,-2.54 6.05,-4.11 9.92,-4.11z"/>
    <rect class="fil1" transform="matrix(5.30214E-14 -2.63909 1.73841 6.06931E-14 29.8489 29.2939)" width="0.89" height="3.93"/>
   </g>
   <path class="fil2" d="M47.97 20.19c0,1.66 1.07,2.66 2.93,2.66 1.43,0 2.35,-0.55 2.77,-1.67 0.11,-0.27 0.02,-0.42 -0.25,-0.51l-1.02 -0.36c-0.29,-0.11 -0.4,-0.05 -0.51,0.26 -0.16,0.4 -0.49,0.61 -0.99,0.61 -0.73,0 -1.05,-0.31 -1.05,-0.98l0 -1.73c0,-0.68 0.32,-0.99 1.05,-0.99 0.49,0 0.83,0.21 0.99,0.62 0.1,0.29 0.22,0.34 0.51,0.25l1.02 -0.36c0.27,-0.08 0.36,-0.24 0.25,-0.51 -0.42,-1.11 -1.34,-1.66 -2.77,-1.66 -1.86,0 -2.93,0.99 -2.93,2.66l0 1.71zm6.19 0c0,1.66 1.06,2.66 2.92,2.66 1.86,0 2.92,-1 2.92,-2.66l0 -1.71c0,-1.67 -1.06,-2.66 -2.92,-2.66 -1.86,0 -2.92,0.99 -2.92,2.66l0 1.71zm3.96 0.08c0,0.6 -0.38,0.91 -1.04,0.91 -0.67,0 -1.04,-0.31 -1.04,-0.91l0 -1.88c0,-0.6 0.37,-0.91 1.04,-0.91 0.66,0 1.04,0.31 1.04,0.91l0 1.88zm8.21 0.77l0 -4.69c0,-0.3 -0.1,-0.4 -0.4,-0.4l-1.07 0c-0.31,0 -0.41,0.1 -0.41,0.4l0 4.69 -1.77 0 0 -4.69c0,-0.3 -0.09,-0.4 -0.4,-0.4l-1.07 0c-0.31,0 -0.41,0.1 -0.41,0.4l0 5.95c0,0.3 0.1,0.4 0.41,0.4l4.13 0 0 1.06c0,0.3 0.1,0.41 0.4,0.41l0.98 0c0.3,0 0.41,-0.11 0.41,-0.41l0 -2.33c0,-0.29 -0.11,-0.39 -0.41,-0.39l-0.39 0zm-18.41 5.23c-0.1,0.28 -0.01,0.43 0.26,0.51l0.93 0.34c0.3,0.1 0.41,0.04 0.52,-0.26 0.16,-0.41 0.52,-0.62 1.07,-0.62 0.69,0 1.04,0.3 1.04,0.88l0 0.16 -1.58 0c-0.31,0 -0.4,0.1 -0.4,0.41l0 0.8c0,0.3 0.09,0.4 0.4,0.4l1.58 0 0 0.2c0,0.61 -0.35,0.92 -1.04,0.92 -0.55,0 -0.91,-0.21 -1.07,-0.62 -0.11,-0.3 -0.22,-0.36 -0.52,-0.26l-0.93 0.33c-0.27,0.09 -0.36,0.24 -0.26,0.52 0.42,1.11 1.34,1.66 2.78,1.66 1.86,0 2.93,-1 2.93,-2.66l0 -1.71c0,-1.66 -1.07,-2.66 -2.93,-2.66 -1.44,0 -2.36,0.55 -2.78,1.66zm10.83 2.39c-0.16,-0.34 -0.36,-0.57 -0.58,-0.74l1.73 -2.76c0.15,-0.26 0.06,-0.42 -0.23,-0.42l-1.09 0c-0.24,0 -0.4,0.02 -0.49,0.06 -0.08,0.05 -0.18,0.14 -0.27,0.3l-1.37 2.16 -0.08 0 -0.13 0 0 -2.12c0,-0.29 -0.1,-0.4 -0.4,-0.4l-1.07 0c-0.31,0 -0.41,0.11 -0.41,0.4l0 5.96c0,0.29 0.1,0.4 0.41,0.4l1.07 0c0.3,0 0.4,-0.11 0.4,-0.4l0 -2.18 0.17 0c0.34,0 0.48,0.14 0.65,0.48l0.82 1.7c0.15,0.33 0.33,0.4 0.85,0.4l1.02 0c0.31,0 0.39,-0.21 0.25,-0.47l-1.25 -2.37zm1.42 0.32c0,1.66 1.07,2.66 2.93,2.66 1.85,0 2.92,-1 2.92,-2.66l0 -1.71c0,-1.66 -1.07,-2.66 -2.92,-2.66 -1.86,0 -2.93,1 -2.93,2.66l0 1.71zm3.96 0.08c0,0.6 -0.38,0.92 -1.03,0.92 -0.68,0 -1.05,-0.32 -1.05,-0.92l0 -1.88c0,-0.59 0.37,-0.91 1.05,-0.91 0.65,0 1.03,0.32 1.03,0.91l0 1.88zm6.81 -4.32c-0.3,0 -0.4,0.11 -0.4,0.41l0 2.1 -1.85 0 0 -2.1c0,-0.3 -0.09,-0.41 -0.39,-0.41l-1.08 0c-0.3,0 -0.41,0.11 -0.41,0.41l0 5.95c0,0.29 0.11,0.4 0.41,0.4l1.08 0c0.3,0 0.39,-0.11 0.39,-0.4l0 -2.19 1.85 0 0 2.19c0,0.29 0.1,0.4 0.4,0.4l1.08 0c0.3,0 0.4,-0.11 0.4,-0.4l0 -5.95c0,-0.3 -0.1,-0.41 -0.4,-0.41l-1.08 0zm2.27 4.24c0,1.66 1.06,2.66 2.92,2.66 1.86,0 2.92,-1 2.92,-2.66l0 -1.71c0,-1.66 -1.06,-2.66 -2.92,-2.66 -1.86,0 -2.92,1 -2.92,2.66l0 1.71zm3.96 0.08c0,0.6 -0.38,0.92 -1.04,0.92 -0.67,0 -1.04,-0.32 -1.04,-0.92l0 -1.88c0,-0.59 0.37,-0.91 1.04,-0.91 0.66,0 1.04,0.32 1.04,0.91l0 1.88zm8.21 -4.32c-0.31,0 -0.41,0.05 -0.53,0.31l-1.57 3.06 -1.57 -3.07c-0.14,-0.24 -0.23,-0.3 -0.56,-0.3l-0.89 0c-0.31,0 -0.41,0.1 -0.41,0.4l0 5.97c0,0.29 0.1,0.39 0.41,0.39l0.97 0c0.3,0 0.41,-0.1 0.41,-0.39l0 -1.35c0,-0.63 -0.14,-1.46 -0.39,-2.5l0.09 0c0.2,0.69 0.39,1.22 0.59,1.57l0.56 1.07c0.11,0.22 0.2,0.28 0.46,0.28l0.63 0c0.24,0 0.35,-0.08 0.46,-0.28l0.53 -1.07c0.1,-0.18 0.21,-0.45 0.35,-0.8 0.15,-0.35 0.24,-0.61 0.29,-0.77l0.1 0c-0.27,0.98 -0.41,1.8 -0.41,2.49l0 1.36c0,0.29 0.09,0.39 0.39,0.39l1.04 0c0.3,0 0.41,-0.1 0.41,-0.39l0 -5.97c0,-0.3 -0.11,-0.4 -0.41,-0.4l-0.95 0zm-37.41 13.03c0,1.67 1.07,2.66 2.93,2.66 1.43,0 2.35,-0.55 2.77,-1.66 0.11,-0.27 0.02,-0.43 -0.25,-0.51l-1.02 -0.36c-0.29,-0.11 -0.4,-0.05 -0.51,0.25 -0.16,0.41 -0.49,0.62 -0.99,0.62 -0.73,0 -1.05,-0.31 -1.05,-0.99l0 -1.73c0,-0.67 0.32,-0.98 1.05,-0.98 0.49,0 0.83,0.2 0.99,0.61 0.1,0.3 0.22,0.34 0.51,0.26l1.02 -0.36c0.27,-0.09 0.36,-0.24 0.25,-0.51 -0.42,-1.12 -1.34,-1.67 -2.77,-1.67 -1.86,0 -2.93,1 -2.93,2.66l0 1.71zm6.76 -4.23c-0.31,0 -0.41,0.1 -0.41,0.39l0 5.96c0,0.3 0.1,0.4 0.41,0.4l4.06 0c0.3,0 0.4,-0.1 0.4,-0.4l0 -0.86c0,-0.31 -0.1,-0.4 -0.4,-0.4l-2.59 0 0 -0.91 2.01 0c0.3,0 0.4,-0.11 0.4,-0.41l0 -0.86c0,-0.29 -0.1,-0.4 -0.4,-0.4l-2.01 0 0 -0.85 2.51 0c0.3,0 0.41,-0.11 0.41,-0.41l0 -0.86c0,-0.29 -0.11,-0.39 -0.41,-0.39l-3.98 0zm5.58 0c-0.3,0 -0.4,0.1 -0.4,0.39l0 5.96c0,0.3 0.1,0.4 0.4,0.4l1.08 0c0.3,0 0.4,-0.1 0.4,-0.4l0 -1.62 1.17 0c1.49,0 2.43,-0.87 2.43,-2.35 0,-1.5 -0.96,-2.38 -2.45,-2.38l-2.63 0zm1.48 3.06l0 -1.4 0.94 0c0.44,0 0.71,0.28 0.71,0.71 0,0.42 -0.27,0.69 -0.71,0.69l-0.94 0zm4.3 -3.06c-0.3,0 -0.4,0.1 -0.4,0.39l0 0.86c0,0.3 0.1,0.41 0.4,0.41l1.42 0 0 4.69c0,0.3 0.09,0.4 0.4,0.4l1.07 0c0.3,0 0.41,-0.1 0.41,-0.4l0 -4.69 1.4 0c0.31,0 0.41,-0.11 0.41,-0.41l0 -0.86c0,-0.29 -0.1,-0.39 -0.41,-0.39l-4.7 0z"/>
  </g>
 </g>
</svg>
